<?xml version="1.0" standalone="no"?><!DOCTYPE svg PUBLIC "-//W3C//DTD SVG 1.1//EN" "http://www.w3.org/Graphics/SVG/1.1/DTD/svg11.dtd"><svg t="1734596708282" class="icon" viewBox="0 0 1024 1024" version="1.1" xmlns="http://www.w3.org/2000/svg" p-id="7139" xmlns:xlink="http://www.w3.org/1999/xlink" width="200" height="200"><path d="M511.5 42.7C252.7 42.7 42.1 253.2 42.1 512s210.6 469.3 469.3 469.3S980.8 770.8 980.8 512 770.3 42.7 511.5 42.7z m0 853.3c-211.8 0-384-172.3-384-384s172.3-384 384-384 384 172.3 384 384-172.3 384-384 384z" fill="#BDBDBD" p-id="7140"></path><path d="M755.6 267.8c-27-27-67.3-35-102.6-20.2L402.3 352.4c-23 9.6-40.9 27.5-50.5 50.4L247.1 653.6c-14.7 35.3-6.8 75.5 20.2 102.6 18 18 41.9 27.6 66.2 27.6 12.2 0 24.5-2.4 36.3-7.3l250.8-104.8c22.9-9.6 40.8-27.4 50.5-50.4l104.8-250.8c14.7-35.4 6.8-75.6-20.3-102.7z m-58.5 69.7L592.4 588.3c-0.9 2.1-2.5 3.7-4.6 4.6L337 697.7c-1.3 0.5-5.3 2.2-9.3-1.8-4-4-2.4-8-1.8-9.3l104.8-250.8c0.9-2.1 2.5-3.7 4.6-4.6L686 326.3c0.6-0.3 1.9-0.8 3.5-0.8 1.7 0 3.7 0.6 5.8 2.6 4 4.1 2.4 8.1 1.8 9.4z" fill="#BDBDBD" p-id="7141"></path><path d="M511.5 512m-42.7 0a42.7 42.7 0 1 0 85.4 0 42.7 42.7 0 1 0-85.4 0Z" fill="#BDBDBD" p-id="7142"></path></svg>